<?xml version="1.0" encoding="UTF-8" standalone="no"?>
<svg
	xmlns="http://www.w3.org/2000/svg"
	width="10"
	height="10">
	<path
		fill="#bada55"
		d="M 9.8153111,0.1807469 A 0.60191516,0.58879785 0 0 0 9.3707145,9.2468956e-5 H 0.62926489 C 0.45826626,9.2468956e-5 0.31120744,0.06031086 0.18808842,0.1807469 A 0.60191516,0.58879785 0 0 0 -1.0056807e-5,0.60896303 c 0,0.1672725 0.06155950681,0.31112661 0.184678506807,0.43156247 L 4.5622333,5.3193466 C 4.6853523,5.4397825 4.828991,5.5 4.9999898,5.5 5.1709884,5.5 5.3146271,5.4397817 5.4377461,5.3193466 L 9.8153111,1.0371801 C 9.93501,0.92008964 9.9999896,0.77623553 9.9999896,0.60896303 c 0,-0.1672715 -0.06498,-0.30778021 -0.1880986,-0.42821613 z"/>
</svg>